<svg width="2694" height="1564" viewBox="0 0 2694 1564" fill="none" xmlns="http://www.w3.org/2000/svg">
<g clip-path="url(#clip0_859_274)">
<path d="M104.09 1473.11H2628.01L2478.76 709.11C2470.26 665.597 2451.28 624.813 2423.47 590.286C2395.65 555.76 2359.84 528.532 2319.14 510.96L1475.44 146.7C1418.31 122.03 1354.47 117.63 1294.5 134.23C34.9401 485.42 387.74 230.42 104.09 1473.11Z" fill="#E3EEFE"/>
<path d="M345.47 1165.91C345.47 1165.91 298.91 1053.44 182.47 1008.26C182.47 1008.26 204.38 1146.79 270.12 1188.44C270.12 1188.44 189.32 1091.44 31.8201 1062.88C31.8201 1062.88 74.2801 1288.96 246.82 1314.98C246.82 1314.98 170.12 1262.98 0.300049 1253.36C0.300049 1253.36 87.95 1396.58 233.12 1403.7C233.12 1403.7 109.86 1388.92 23.5801 1421.78C82.7101 1453.93 238.96 1481.84 363.77 1472.03L345.47 1165.91Z" fill="#A7BD37"/>
<mask id="mask0_859_274" style="mask-type:luminance" maskUnits="userSpaceOnUse" x="0" y="1008" width="364" height="467">
<path d="M345.47 1165.91C345.47 1165.91 298.91 1053.44 182.47 1008.26C182.47 1008.26 204.38 1146.79 270.12 1188.44C270.12 1188.44 189.32 1091.44 31.8201 1062.88C31.8201 1062.88 74.2801 1288.96 246.82 1314.98C246.82 1314.98 170.12 1262.98 0.300049 1253.36C0.300049 1253.36 87.95 1396.58 233.12 1403.7C233.12 1403.7 109.86 1388.92 23.5801 1421.78C82.7101 1453.93 238.96 1481.84 363.77 1472.03L345.47 1165.91Z" fill="white"/>
</mask>
<g mask="url(#mask0_859_274)">
<path d="M302.02 1079.63L267.98 1489.45H393.69L354.4 1110.84L302.02 1079.63Z" fill="#3E5409"/>
<path d="M324.22 1325.09C281.46 1278.42 31.45 1067.53 30.75 1061.94C33.69 1061.96 290.01 1278.86 324.22 1325.09Z" fill="#3E5409"/>
<path d="M363.82 1422.87C300.12 1370.04 1.41 1258.04 -1 1252.87C0.56 1250.96 310.85 1369.64 363.82 1422.87Z" fill="#3E5409"/>
<path d="M373.01 1286.52C359.59 1248.75 181.29 1012.52 181.59 1007.1C190.2 1014.89 366.68 1249.71 373.01 1286.52Z" fill="#3E5409"/>
<path d="M388.91 1445.07C325.54 1433.07 25.58 1426.07 22.19 1421.73C22.08 1419.95 338.18 1428.69 388.91 1445.07Z" fill="#3E5409"/>
</g>
<path d="M2316.36 1183.84C2316.36 1183.84 2340.45 1047.77 2405.56 1003.01C2405.56 1003.01 2431.33 1113.56 2405.56 1158.65C2405.56 1158.65 2489.66 1077.65 2573.76 1036.92C2573.76 1036.92 2575.12 1205.09 2463.89 1245.78C2463.89 1245.78 2534.43 1210.52 2680.89 1239C2680.89 1239 2565.59 1355.64 2485.56 1355.64C2485.56 1355.64 2610.36 1361.06 2680.89 1411.24C2637.29 1441.04 2423.11 1486.94 2279.38 1473.11L2316.36 1183.84Z" fill="#A7BD37"/>
<mask id="mask1_859_274" style="mask-type:luminance" maskUnits="userSpaceOnUse" x="2279" y="1003" width="402" height="473">
<path d="M2316.36 1183.84C2316.36 1183.84 2340.45 1047.77 2405.56 1003.01C2405.56 1003.01 2431.33 1113.56 2405.56 1158.65C2405.56 1158.65 2489.66 1077.65 2573.76 1036.92C2573.76 1036.92 2575.12 1205.09 2463.89 1245.78C2463.89 1245.78 2534.43 1210.52 2680.89 1239C2680.89 1239 2565.59 1355.64 2485.56 1355.64C2485.56 1355.64 2610.36 1361.06 2680.89 1411.24C2637.29 1441.04 2423.11 1486.94 2279.38 1473.11L2316.36 1183.84Z" fill="white"/>
</mask>
<g mask="url(#mask1_859_274)">
<path d="M2336.01 1074.14C2336.01 1074.14 2370.57 1416.64 2417.08 1485.74L2254.95 1487.07L2252.29 1113.36L2336.01 1074.14Z" fill="#3E5409"/>
<path d="M2331.11 1323.16C2361.46 1256.5 2571.43 1036.16 2574.75 1035.87C2574.56 1041.28 2369.01 1255.71 2331.11 1323.16Z" fill="#3E5409"/>
<path d="M2313.55 1287.78C2320.25 1262.34 2345.9 1207.88 2369.55 1122.51C2390.55 1057.59 2401.31 1002.99 2405.96 1001.62C2401.21 1033.75 2337.1 1249.87 2313.55 1287.78Z" fill="#3E5409"/>
<path d="M2322.57 1378.49C2362.25 1325.49 2637.1 1245.6 2682.32 1238.64C2635.6 1252.67 2373.46 1326.23 2322.57 1378.49Z" fill="#3E5409"/>
<path d="M2311.29 1420.23C2294.02 1401.33 2656.06 1399.17 2682.36 1411.36C2679.53 1415.23 2618.04 1406.55 2537.94 1406.36C2408.01 1403.82 2343.58 1412.52 2311.29 1420.23Z" fill="#3E5409"/>
</g>
<path d="M1569.12 700.91C1433.42 579.15 1207.78 612.91 1113.4 770.91L1218.28 787.61C1292.93 706.61 1418.34 699.12 1501.86 767.21L1446.86 821.46L1643.89 855.42L1612.72 657.92L1569.12 700.91Z" fill="white"/>
<path d="M1168.82 1320.3C1304.52 1442.06 1530.16 1408.3 1624.54 1250.3L1519.66 1233.59C1445.01 1314.59 1319.6 1322.09 1236.08 1254L1291.08 1199.75L1094.01 1165.8L1125.18 1363.28L1168.82 1320.3Z" fill="white"/>
<path d="M1425.75 228.33L1310.89 324.17L1170.71 272.62C1160.87 273.46 1190.77 403.62 1189.94 409.62C1190.75 414.135 1193.31 418.145 1197.07 420.77C1200.83 423.395 1205.48 424.42 1210 423.62L1439.82 382.93C1444.32 382.125 1448.33 379.569 1450.95 375.821C1453.57 372.072 1454.61 367.437 1453.82 362.93C1450.89 356.57 1434.59 228.71 1425.75 228.33Z" fill="white"/>
<path d="M1425.75 228.33C1423.82 226.741 1421.57 225.591 1419.15 224.959C1416.74 224.327 1414.21 224.228 1411.75 224.67L1182.01 265.36C1179.75 265.758 1177.58 266.605 1175.65 267.852C1173.72 269.099 1172.06 270.72 1170.76 272.62L1310.94 324.17L1425.75 228.33Z" fill="#739BFD"/>
<path d="M1154.63 408.73C1154.54 428.61 1124.31 428.61 1124.22 408.73C1124.31 388.85 1154.55 388.85 1154.63 408.73Z" fill="white"/>
<path d="M1098.28 470.08C1098.19 489.97 1067.95 489.96 1067.86 470.08C1067.95 450.2 1098.19 450.2 1098.28 470.08Z" fill="white"/>
<path d="M1067.86 551.87C1067.77 571.75 1037.54 571.75 1037.45 551.87C1037.54 531.99 1067.78 531.99 1067.86 551.87Z" fill="white"/>
<path d="M1525.37 348.07C1525.29 367.95 1495.05 367.95 1494.96 348.07C1495.01 328.19 1525.29 328.19 1525.37 348.07Z" fill="white"/>
<path d="M1603.74 384.77C1603.65 404.66 1573.42 404.65 1573.33 384.77C1573.42 364.89 1603.65 364.89 1603.74 384.77Z" fill="white"/>
<path d="M1645.01 454.88C1644.92 474.76 1614.68 474.76 1614.6 454.88C1614.66 435 1644.9 435 1645.01 454.88Z" fill="white"/>
<path d="M2693.98 1467.45H61.3501V1476.6H2693.98V1467.45Z" fill="#38385C"/>
<path d="M1746.12 1472.03H2304.22C2326.09 1472.03 2343.81 1454.31 2343.81 1432.44V380.11C2343.81 358.245 2326.09 340.52 2304.22 340.52H1746.12C1724.26 340.52 1706.53 358.245 1706.53 380.11V1432.44C1706.53 1454.31 1724.26 1472.03 1746.12 1472.03Z" fill="#38385C"/>
<path d="M1756.32 1388.82H2294.01V423.72L1756.32 423.72V1388.82Z" fill="#B9D4FD"/>
<mask id="mask2_859_274" style="mask-type:luminance" maskUnits="userSpaceOnUse" x="1756" y="423" width="539" height="966">
<path d="M1756.33 1388.82H2294.02V423.72L1756.33 423.72V1388.82Z" fill="white"/>
</mask>
<g mask="url(#mask2_859_274)">
<path d="M1756.32 423.72L2245.35 461.56L2225.5 1394.36L2309.31 1388.82L2308.99 404.93L1756.32 423.72Z" fill="#739BFD"/>
<path opacity="0.2" d="M1735.96 640.97L2309.31 1209.4V1388.82H1756.32L1735.96 640.97Z" fill="white"/>
</g>
<path d="M1977.83 395.74H2079.54C2081.89 395.74 2084.14 394.808 2085.8 393.149C2087.46 391.489 2088.4 389.238 2088.4 386.89C2088.4 384.542 2087.46 382.291 2085.8 380.632C2084.14 378.972 2081.89 378.04 2079.54 378.04H1977.83C1975.48 378.04 1973.23 378.972 1971.57 380.632C1969.91 382.291 1968.97 384.542 1968.97 386.89C1968.97 389.238 1969.91 391.489 1971.57 393.149C1973.23 394.808 1975.48 395.74 1977.83 395.74Z" fill="white"/>
<path d="M1876.01 673.2C1963.01 586.42 2089.91 877.58 2096.78 886.04C2398.06 1033.04 2091.71 1171.04 1876.15 1090.04C1848.31 1082.96 1823.39 1067.34 1804.88 1045.39C1786.36 1023.43 1775.18 996.223 1772.91 967.59C1764.44 859.42 1769.56 694.1 1876.01 673.2Z" fill="#38385C"/>
<path d="M1821.18 803.04C1843.48 593.21 2048.59 728.85 1958.94 876.52L1980.38 981.99L1900.78 995.99L1890.29 909.79C1851.29 902.8 1821.18 857.69 1821.18 803.04Z" fill="#FFB6A6"/>
<mask id="mask3_859_274" style="mask-type:luminance" maskUnits="userSpaceOnUse" x="1821" y="695" width="161" height="301">
<path d="M1821.18 803.04C1843.48 593.21 2048.59 728.85 1958.94 876.52L1980.38 981.99L1900.78 995.99L1890.29 909.79C1851.29 902.8 1821.18 857.69 1821.18 803.04Z" fill="white"/>
</mask>
<g mask="url(#mask3_859_274)">
<path d="M1992.4 811.24C1992.4 811.24 1933.34 796.04 1913.85 779.43L1933.52 798.91C1933.52 798.91 1872.92 784.55 1859.52 747.48C1859.52 747.48 1835.52 777.48 1833.32 802.48C1829.43 772.01 1815.32 706.84 1873.58 698.65L1987 789.65L1992.4 811.24Z" fill="#FF8370"/>
<path d="M1958.94 876.52C1958.94 876.52 1938.94 903.58 1900.78 908.77C1900.78 908.77 1944.22 921.07 1972.08 906.82L1958.94 876.52Z" fill="#FF8370"/>
<path d="M1871.5 869.74C1871.5 869.74 1898.08 868.17 1907.5 854.01C1907.5 854.01 1903.34 879.4 1887.76 881.79C1872.87 884.09 1871.5 869.74 1871.5 869.74Z" fill="white"/>
</g>
<path d="M1886.67 686.3C1886.67 686.3 1882.67 794.39 1980.38 797.22C1980.38 797.22 1984.13 671.68 1886.67 686.3Z" fill="#38385C"/>
<path d="M1889.91 696.36C1889.91 696.36 1887.35 764.03 1915.85 789.59C1915.85 789.59 1864.14 762.35 1872.39 702.41C1872.39 702.42 1874.87 696.18 1889.91 696.36Z" fill="#38385C"/>
<path d="M1880.61 695.08C1880.61 695.08 1837.92 752.41 1835.35 789.59C1835.35 789.59 1833.81 729.97 1852.35 696.36L1880.61 695.08Z" fill="#38385C"/>
<path d="M2138.9 1027.47C2109.17 935 1970.84 928.47 1970.84 928.47L1891.24 942.47C1848.14 949.94 1718.94 1137.7 1685.12 1180.47L1807.54 1256.18C1814.31 1327.24 1821.18 1388.87 1821.18 1388.87H2108.13C2108.13 1388.87 2168.63 1119.95 2138.9 1027.47Z" fill="#F85C3D"/>
<mask id="mask4_859_274" style="mask-type:luminance" maskUnits="userSpaceOnUse" x="1685" y="928" width="463" height="461">
<path d="M2138.9 1027.47C2109.17 935 1970.84 928.47 1970.84 928.47L1891.24 942.47C1848.14 949.94 1718.94 1137.7 1685.12 1180.47L1807.54 1256.18C1814.31 1327.24 1821.18 1388.87 1821.18 1388.87H2108.13C2108.13 1388.87 2168.63 1119.95 2138.9 1027.47Z" fill="white"/>
</mask>
<g mask="url(#mask4_859_274)">
<path d="M1807.54 1256.13L1797.43 1076.83C1797.43 1076.83 1757.43 1195.41 1747.66 1193.31C1737.89 1191.21 1681.33 1164.04 1681.33 1164.04L1674.76 1178.43L1809.34 1276.71L1807.54 1256.13Z" fill="#DF4930"/>
</g>
<path d="M1807.54 1256.13L1499.54 1031.39L1464.54 1089.83L1691.54 1316.91C1724.2 1351.51 1774.07 1350.2 1815.28 1333.16L1807.54 1256.13Z" fill="#FFB6A6"/>
<mask id="mask5_859_274" style="mask-type:luminance" maskUnits="userSpaceOnUse" x="1464" y="1031" width="352" height="314">
<path d="M1807.54 1256.13L1499.54 1031.39L1464.54 1089.83L1691.54 1316.91C1724.2 1351.51 1774.07 1350.2 1815.28 1333.16L1807.54 1256.13Z" fill="white"/>
</mask>
<g mask="url(#mask5_859_274)">
<path d="M1606.71 1256.06C1606.71 1256.06 1701.78 1304.63 1734.4 1305.32C1767.02 1306.01 1796.86 1237.32 1796.86 1237.32L1836.42 1256.75L1832.95 1339.32L1724.68 1360.14L1606.71 1256.06Z" fill="#FF8370"/>
</g>
<path d="M1378.65 1188.42C1155.28 1184.42 1155.31 852.52 1378.65 848.55C1602.01 852.57 1602.01 1184.42 1378.65 1188.42Z" fill="#EECD76"/>
<mask id="mask6_859_274" style="mask-type:luminance" maskUnits="userSpaceOnUse" x="1211" y="848" width="336" height="341">
<path d="M1378.65 1188.42C1155.28 1184.42 1155.31 852.52 1378.65 848.55C1602.01 852.57 1602.01 1184.42 1378.65 1188.42Z" fill="white"/>
</mask>
<g mask="url(#mask6_859_274)">
<path opacity="0.47" d="M1267.27 866.92C1332.65 960.92 1318.73 1080.27 1273.12 1151.61C1273.12 1151.61 1183.21 1111.13 1171.47 1062.81C1159.73 1014.49 1267.27 866.92 1267.27 866.92Z" fill="#EDA26A"/>
</g>
<path opacity="0.66" d="M1517.21 1018.5C1514.1 1200.62 1243.21 1200.59 1240.08 1018.5C1243.19 836.42 1514.13 836.42 1517.21 1018.5Z" fill="#EDA26A"/>
<path d="M1992.01 1358.1C1992.01 1358.1 2048.29 1362.1 2069.43 1345.49C2090.57 1328.88 2142.05 1183.84 2142.05 1183.84C2142.05 1183.84 2123.37 1342.3 2108.05 1388.84H1931.72C1931.72 1388.84 1979.77 1367.83 1992.01 1358.1Z" fill="#DF4930"/>
<path d="M1931.72 1250.69L2012.67 1076.83C2012.67 1076.83 1901.94 1202.94 1891.75 1280.04L1931.72 1250.69Z" fill="#DF4930"/>
<path d="M2033.49 1263.67C2024.03 1228.39 1981.63 1214.03 1952.19 1235.67L1673.8 1440.1C1659.8 1440.17 1577.37 1441.05 1581.29 1451.68C1585.57 1463.3 1633.88 1466.36 1633.88 1466.36C1633.88 1466.36 1534.2 1520.16 1536.65 1526.28C1539.1 1532.4 1627.15 1569.08 1638.77 1562.96C1649.31 1557.42 1705.92 1502.54 1716.36 1492.39L1974.95 1368.04C2014.69 1351.84 2047.33 1299.54 2033.49 1263.67Z" fill="#FFB6A6"/>
<mask id="mask7_859_274" style="mask-type:luminance" maskUnits="userSpaceOnUse" x="1536" y="1225" width="501" height="339">
<path d="M2033.49 1263.67C2024.03 1228.39 1981.63 1214.03 1952.19 1235.67L1673.8 1440.1C1659.8 1440.17 1577.37 1441.05 1581.29 1451.68C1585.57 1463.3 1633.88 1466.36 1633.88 1466.36C1633.88 1466.36 1534.2 1520.16 1536.65 1526.28C1539.1 1532.4 1627.15 1569.08 1638.77 1562.96C1649.31 1557.42 1705.92 1502.54 1716.36 1492.39L1974.95 1368.04C2014.69 1351.84 2047.33 1299.54 2033.49 1263.67Z" fill="white"/>
</mask>
<g mask="url(#mask7_859_274)">
<path d="M1976.62 1214.08C1976.62 1214.08 1999.38 1270.14 1996.37 1297.08C1993.36 1324.02 1716.37 1492.38 1716.37 1492.38C1716.37 1492.38 1984.64 1403.38 2002.84 1387.38C2048.22 1332.35 2094.57 1236.48 1976.62 1214.08Z" fill="#FF8370"/>
</g>
<path d="M1559.15 1074.89C1559.15 1074.89 1554.76 1028.18 1548.4 1027.02C1542.04 1025.86 1476.05 1039.2 1476.85 1042.81C1477.65 1046.42 1492.11 1061.67 1496.52 1061.67C1500.93 1061.67 1531.85 1062.88 1531.85 1062.88L1513.85 1121.34C1513.85 1121.34 1564.52 1110.84 1559.15 1074.89Z" fill="#FFB6A6"/>
<path d="M1531.85 1062.88C1531.85 1062.88 1559.85 1113.19 1505.85 1131.14C1505.8 1131.14 1534.08 1077.05 1531.85 1062.88Z" fill="#FF8370"/>
<path d="M1923.26 522.988C1921.8 608.806 1794.12 608.793 1792.67 522.988C1794.13 437.17 1921.81 437.183 1923.26 522.988Z" fill="#4154F1"/>
<path d="M1842.66 525.655C1839.25 522.665 1833.57 511.642 1827.91 516.761L1823.82 520.374C1823.32 520.823 1822.9 521.367 1822.61 521.976C1822.31 522.584 1822.14 523.245 1822.1 523.921C1822.06 524.597 1822.15 525.274 1822.37 525.913C1822.59 526.553 1822.94 527.143 1823.39 527.649L1841.31 547.901C1842.21 548.923 1843.49 549.544 1844.85 549.626C1846.22 549.707 1847.56 549.244 1848.58 548.337C1853.04 544.362 1894.86 507.423 1900.37 502.518C1904.7 498.486 1900.05 494.248 1897.2 491.172C1896.75 490.665 1896.21 490.252 1895.6 489.956C1894.99 489.66 1894.33 489.486 1893.66 489.446C1892.98 489.405 1892.3 489.498 1891.67 489.72C1891.03 489.941 1890.44 490.286 1889.93 490.736L1849.94 526.082C1849.44 526.532 1848.85 526.879 1848.21 527.101C1847.57 527.323 1846.89 527.417 1846.21 527.377C1845.54 527.337 1844.87 527.165 1844.26 526.869C1843.65 526.574 1843.11 526.161 1842.66 525.655Z" fill="#E3EEFE"/>
<path d="M680.94 182.99H265.67C271.99 141.14 316.79 113.06 357.13 125.89C351.3 89.02 387 63.03 418.77 53.63C494.71 22.12 544.84 80.96 568.47 149.9C600.58 108.03 678.01 130.54 680.94 182.99Z" fill="#E3EEFE"/>
<path d="M2309.6 182.99H1900.78C1918.99 156.59 1953.63 141.99 1985.04 148.53C2009.95 41.92 2165.56 39.79 2193.44 145.6C2215.38 132 2241.2 121.53 2266.58 126.26C2291.96 130.99 2315.28 157.81 2309.6 182.99Z" fill="#E3EEFE"/>
<path d="M1149.01 70.42H956.28C962.53 48.48 986.98 34.54 1008.11 43.14C1019.57 -12.1 1102.85 -15.08 1096.99 46.14C1102.24 42.8835 1108.17 40.8896 1114.32 40.3153C1120.47 39.7409 1126.67 40.6017 1132.43 42.83C1143.87 47.42 1146.01 58.53 1149.01 70.42Z" fill="#E3EEFE"/>
<path d="M921.9 340.51H363.8C341.935 340.51 324.21 358.235 324.21 380.1V1432.43C324.21 1454.3 341.935 1472.02 363.8 1472.02H921.9C943.765 1472.02 961.49 1454.3 961.49 1432.43V380.1C961.49 358.235 943.765 340.51 921.9 340.51Z" fill="#38385C"/>
<path d="M911.7 423.72H374.01V1388.82H911.7V423.72Z" fill="#B9D4FD"/>
<mask id="mask8_859_274" style="mask-type:luminance" maskUnits="userSpaceOnUse" x="374" y="423" width="538" height="966">
<path d="M911.7 423.72H374.01V1388.82H911.7V423.72Z" fill="white"/>
</mask>
<g mask="url(#mask8_859_274)">
<path d="M911.7 423.72L422.68 461.56L442.53 1394.36L358.72 1388.82L359.03 404.93L911.7 423.72Z" fill="#739BFD"/>
<path opacity="0.2" d="M932.07 640.97L358.72 1209.4V1388.82H911.7L932.07 640.97Z" fill="white"/>
</g>
<path d="M690.21 395.74H588.49C586.143 395.74 583.892 394.808 582.232 393.148C580.573 391.488 579.64 389.237 579.64 386.89C579.64 384.543 580.573 382.292 582.232 380.632C583.892 378.972 586.143 378.04 588.49 378.04H690.21C692.557 378.04 694.808 378.972 696.468 380.632C698.128 382.292 699.06 384.543 699.06 386.89C699.06 389.237 698.128 391.488 696.468 393.148C694.808 394.808 692.557 395.74 690.21 395.74Z" fill="white"/>
<path d="M797.19 727.07L820.92 838.42C826.17 852.9 818.27 877.33 804.75 890.92C801.381 894.286 797.257 896.797 792.72 898.245C788.183 899.692 783.366 900.033 778.67 899.24L726.24 890.48L705.24 984.29H603.57L668.95 728.67L797.19 727.07Z" fill="#FFB6A6"/>
<mask id="mask9_859_274" style="mask-type:luminance" maskUnits="userSpaceOnUse" x="603" y="727" width="220" height="258">
<path d="M797.19 727.07L820.92 838.42C826.17 852.9 818.27 877.33 804.75 890.92C801.381 894.286 797.257 896.797 792.72 898.245C788.183 899.692 783.366 900.033 778.67 899.24L726.24 890.48L705.24 984.29H603.57L668.95 728.67L797.19 727.07Z" fill="white"/>
</mask>
<g mask="url(#mask9_859_274)">
<path d="M811.66 775.72C792.537 778.428 773.253 779.841 753.94 779.95C753.94 779.95 766.81 782.53 781.38 784.41C781.38 784.41 744.87 798.08 709.81 786.29C709.81 786.29 708.3 797.48 701.65 798.99C695 800.5 682.14 804.65 682.14 804.65L681.4 736.44L809.85 722.23L811.66 775.72Z" fill="#FF8370"/>
<path d="M795.79 897.08C794.18 897.74 720.13 864.08 720.13 864.08L721.4 912.08C721.4 912.08 793.94 912 795.79 897.08Z" fill="#FF8370"/>
</g>
<path d="M806.5 839.91C806.5 839.91 790.85 850.91 767.76 841.52C767.76 841.52 774.43 860.79 791.6 857.22C808.77 853.65 806.5 839.91 806.5 839.91Z" fill="white"/>
<path d="M718.41 645.62C631.6 635.88 589.07 701.13 590.07 737.33C591.07 772.06 630.92 877.33 630.92 877.33L675.52 828.33C675.52 828.33 664.28 821.12 660.52 810.81C656.76 800.5 661.71 777.73 673.52 780.59C678.66 781.83 682.11 804.59 682.11 804.59C696.35 795.66 697.87 792.39 697.99 769.08C729.27 779.08 760.55 765.72 760.55 765.72C736.47 764.44 714.95 755.98 702.55 750.07C775.25 768.19 801.86 727.01 801.86 727.01C801.86 727.01 805.22 655.35 718.41 645.62Z" fill="#38385C"/>
<path d="M1009.32 1222.08L777.45 1018.97C725.77 968.67 614.13 942.97 614.13 942.97C580.61 1001.25 505.44 1388.8 505.44 1388.8H843.19C843.19 1388.8 841.19 1368.4 837.87 1337.44C867.87 1355.64 891.45 1368.84 891.45 1368.84L1009.32 1222.08Z" fill="#F85C3D"/>
<mask id="mask10_859_274" style="mask-type:luminance" maskUnits="userSpaceOnUse" x="505" y="942" width="505" height="447">
<path d="M1009.32 1222.08L777.45 1018.97C725.77 968.67 614.13 942.97 614.13 942.97C580.61 1001.25 505.44 1388.8 505.44 1388.8H843.19C843.19 1388.8 841.19 1368.4 837.87 1337.44C867.87 1355.64 891.45 1368.84 891.45 1368.84L1009.32 1222.08Z" fill="white"/>
</mask>
<g mask="url(#mask10_859_274)">
<path d="M837.87 1337.45L757.38 1265.36L790.26 1388.82H843.18L837.87 1337.45Z" fill="#DF4930"/>
</g>
<path d="M717.58 979.5L747.75 951.75L615.54 900.78L614.13 942.99L717.58 979.5Z" fill="white"/>
<path d="M1296.31 1001.87C1292.39 986.81 1263.8 935.03 1257.31 934.79C1251.15 934.57 1205.95 1019.2 1205.95 1019.2C1205.95 1019.2 1207.04 1000.88 1204.95 993.2C1202.86 985.52 1191.19 975.35 1187.61 976.37C1184.61 977.22 1174.8 1040.77 1171.47 1062.8L1021.18 1263.68L992.24 1243.14L911.71 1343.42C949.44 1363.48 1011.15 1422.22 1057.97 1398.34C1075.76 1391.32 1090.27 1377.89 1098.63 1360.69L1223.34 1103.59C1223.34 1103.59 1300.22 1016.93 1296.31 1001.87Z" fill="#FFB6A6"/>
<mask id="mask11_859_274" style="mask-type:luminance" maskUnits="userSpaceOnUse" x="911" y="934" width="386" height="470">
<path d="M1296.31 1001.87C1292.39 986.81 1263.8 935.03 1257.31 934.79C1251.15 934.57 1205.95 1019.2 1205.95 1019.2C1205.95 1019.2 1207.04 1000.88 1204.95 993.2C1202.86 985.52 1191.19 975.35 1187.61 976.37C1184.61 977.22 1174.8 1040.77 1171.47 1062.8L1021.18 1263.68L992.24 1243.14L911.71 1343.42C949.44 1363.48 1011.15 1422.22 1057.97 1398.34C1075.76 1391.32 1090.27 1377.89 1098.63 1360.69L1223.34 1103.59C1223.34 1103.59 1300.22 1016.93 1296.31 1001.87Z" fill="white"/>
</mask>
<g mask="url(#mask11_859_274)">
<path d="M1009.32 1237.77C1009.32 1237.77 976.73 1391.48 1025.32 1426.77L878.21 1339.99L961.54 1204.67L1009.32 1237.77Z" fill="#FF8370"/>
</g>
</g>
<defs>
<clipPath id="clip0_859_274">
<rect width="2694" height="1564" fill="white"/>
</clipPath>
</defs>
</svg>
